<svg fill= "#01cbe1" width="179" height="15" xmlns="http://www.w3.org/2000/svg">

<path d="M50.351 14.696V.226h8.563v1.128h-7.329v5.532h7.205v1.126h-7.205v5.55h7.375v1.128zM11.914 7.935V.28h4.448v.597h-3.795v2.797h3.728v.599h-3.728v3.063h3.817v.597zm57.556 1.27h-5.917l-2.154 5.498h-1.215L65.832.226h1.274l5.878 14.47h-1.276l-2.239-5.49zM63.99 8.1h5.02l-2.552-6.304L63.99 8.1zm11.488-5.763V14.69h-1.233V.226h1.279l8.45 12.442V.226h1.236v14.47h-1.28zm26.923 12.387V.254h2.907v11.752h6.242v2.718zm10.909 0V.254h9.208v2.717h-6.302V5.98h6.199v2.672h-6.199v3.347h6.367v2.717zm19.832-3.972h-4.956l-1.422 3.972H123.9l5.229-14.47h3.051l5.48 14.47h-3.073l-1.444-3.972zm-4.056-2.469h3.158l-1.591-4.35-1.567 4.35zM141.8 5.188v9.536h-2.823V.254h3.011l6.21 9.703V.254h2.825v14.47h-2.886zM27.791 14.786a7.392 7.392 0 117.392-7.391 7.403 7.403 0 01-7.392 7.391zm0-13.524a6.132 6.132 0 106.13 6.133 6.14 6.14 0 00-6.13-6.133zm68.702 10.843a4.66 4.66 0 114.057-6.934V1.277a7.392 7.392 0 100 12.335v-3.89a4.657 4.657 0 01-4.057 2.383zm-52.117 1.42a6.132 6.132 0 114.17-10.61V1.298a7.393 7.393 0 100 12.19V11.87a6.084 6.084 0 01-4.17 1.654zm108.505-4.489V.21h2.906v8.825c0 1.902.898 3.199 2.885 3.199 1.905 0 2.847-1.339 2.847-3.222V.211h2.904v8.81c0 3.431-2.006 5.939-5.791 5.939-3.931-.008-5.75-2.37-5.75-5.924zm17.861-.419h-1.59v6.066h-2.885V.211h4.475c2.885 0 4.425 1.475 4.425 4.162.007 2.62-1.75 4.244-4.425 4.244zm-1.59-5.9v3.39h1.357c1.07 0 1.66-.689 1.66-1.714s-.586-1.672-1.66-1.672l-1.357-.004zM2.371.877v7.058h-.653V.877H0V.28h4.119v.597zm8.374 7.058h-.652V4.247H5.865v3.688h-.653V.28h.653v3.352h4.228V.28h.652zm165.672-4.457a1.722 1.722 0 01-.625-2.358 1.722 1.722 0 012.978 0 1.744 1.744 0 010 1.733 1.722 1.722 0 01-2.353.625zm.129-2.765c-.222.126-.405.31-.531.533-.13.223-.198.478-.196.737a1.457 1.457 0 00.726 1.27c.224.133.479.202.738.2a1.47 1.47 0 001.268-.732 1.4 1.4 0 00.2-.738 1.422 1.422 0 00-.2-.737 1.444 1.444 0 00-.53-.533 1.407 1.407 0 00-.738-.196c-.26.001-.515.073-.737.207V.713zm.693 1.475h-.34v.78h-.276V1.01h.804a.662.662 0 01.454.166.614.614 0 01.092.767.577.577 0 01-.214.184.47.47 0 01-.195.06l.527.788h-.341l-.51-.787zm-.34-.948v.697h.528a.369.369 0 00.251-.098.317.317 0 00.105-.243.336.336 0 00-.105-.258.352.352 0 00-.25-.098h-.53z" fill="#01cbe1"/></svg>