<svg xmlns="http://www.w3.org/2000/svg" width="549" height="57" viewBox="0 0 549 57">
    <g fill="none" fill-rule="evenodd">
        <path fill="#7DB9B6" d="M37.79 51.791l.295.062s.838.122 2.268.122c2.742 0 7.666-.444 13.045-3.024-4.162 1.426-8.994 2.49-12.938 2.723-.902.055-1.791.092-2.67.117"/>
        <path fill="#63A15A" d="M128.773 44.232c1.141.893 2.283 1.262 3.461 1.262 2.953 0 6.119-2.31 9.984-4.429 2.067-1.133 3.723-1.6 4.268-3.44.547-1.842 4.39-6.082 4.172-7.812-.094-.758-.573-1.055-1.188-1.055-.515 0-1.131.211-1.695.537-1.266.728-5.24 6.767-5.295 6.767-.008 0 .047-.097.178-.312 1.025-1.678 3.533-5.814 2.502-7.123-.207-.262-.52-.383-.873-.383-.485 0-1.045.227-1.52.619-.738.617-4.793 6.942-5.01 6.942-.025 0-.004-.073.069-.231.754-1.644 1.672-3.98 1.525-4.599-.127-.541-.752-1.594-1.504-1.594a.842.842 0 0 0-.324.066c-.891.375-2.719 4.391-6.002 7.123-2.684 2.233-4.242 2.436-4.725 2.436a.996.996 0 0 1-.16-.01s-1.865 2.1 2.137 5.236"/>
        <path fill="#3C717B" d="M61.415 34.795c-3.048 2.959-5.73 6.312-9.085 8.947-3.206 2.52-6.971 4.561-10.954 5.51a26.554 26.554 0 0 1-7.466.686 21.649 21.649 0 0 1-3.914-.544c-.301-.07-1.004-.296-1.004-.296.517.283 1.023.589 1.564.822 1.117.482 2.305.719 3.516.785.336.018.672.035 1.008.063 2.672.213 5.359-.024 7.998-.465 2.543-.424 5.076-.977 7.578-1.6 2.566-.642 5.146-1.445 7.459-2.752a16.643 16.643 0 0 0 3.109-2.264c.356-.326 3.434-3.464 4.199-4.57a125.674 125.674 0 0 1-4.008-4.322"/>
        <path fill="#65BDCD" d="M27.185 49.061a15.984 15.984 0 0 1-1.037-.583c-.9-.552-1.772-1.146-2.674-1.691-1.398-.847-2.775-1.738-4-2.826-2.365-2.105-4.24-4.945-4.924-8.063-.398-1.824-.513-3.917-.289-5.775.641-5.344 4.811-11.525 9.502-14.023 9.281-4.944 19.283-.395 26.774 5.681-2.194-2.49-5.141-5.525-8.879-7.679-.475-.27-.92-.506-1.373-.729-.106-.053-.465-.217-.465-.217a22.877 22.877 0 0 0-1.59-.668 26.269 26.269 0 0 0-.945-.326c-.262-.084-.455-.146-.653-.205-.343-.1-.697-.186-1.052-.269l-.235-.057c-.121-.029-.242-.059-.365-.086a22.762 22.762 0 0 0-1.68-.283l-.101-.018c-.123-.013-.293-.027-.463-.041l-.518-.051c-.123-.011-.248-.025-.371-.033a22.097 22.097 0 0 0-1.379-.045c-.412 0-.822.014-1.228.037-.149.01-.295.024-.442.037l-.394.038c-.117.009-.235.017-.352.033-.279.033-.549.076-.818.119l-.342.053c-.307.054-.607.121-.908.187l-.223.049a20.29 20.29 0 0 0-.941.252l-.174.051c-.315.093-.625.199-.932.308l-.158.055c-.307.115-.605.234-.898.359l-.192.08c-.275.122-.552.252-.826.387l-.232.117c-.256.129-.502.264-.748.403l-.295.17c-.221.13-.438.265-.651.404a20.095 20.095 0 0 0-2.244 1.68 24.86 24.86 0 0 0-.861.791c-.135.131-.268.263-.397.398-.138.145-.277.289-.412.436a22.467 22.467 0 0 0-.76.877c-.128.156-.251.314-.372.472l-.215.272-.125.179c-.129.176-.252.356-.375.538-.12.173-.211.306-.297.441-.127.197-.248.398-.369.599 0 0-.188.313-.239.405-.136.238-.263.482-.39.726l-.158.303c-.157.318-.307.641-.448.969l-.037.078a20.865 20.865 0 0 0-.832 14.205c.055.182.115.365.184.551l.224.562c.055.125.114.252.174.379l.09.194c.059.125.123.246.185.367l.12.228c.05.092.338.596.338.596l.371.602.117.173c.094.147.187.288.285.428l-.305.244.032.043.318-.222c1.035 1.482 2.287 2.894 3.525 3.976a12.356 12.356 0 0 0 1.18.924c.185.129.379.248.572.369l.225.145c.26.156.523.302.791.445l.068.039c.287.152.571.289.856.424l.072.033c.295.137.566.252.842.363l.185.078c.246.098.494.188.745.278l.291.105c.23.078.462.149.695.219l.338.103c.324.094.65.178.97.253l.196.044c.423.096.843.188 1.26.27l.146.025c.947.184 2.752.469 3.711.592-.248-.033-2.367-1.127-2.799-1.351M90.691 15.648c.361-.101.726-.191 1.098-.267.984-.199 1.984-.35 2.968-.555 1.522-.316 4.403-.428 6-.455 3.086-.053 6.418.748 9.205 2.541 1.631 1.049 3.288 2.483 4.551 3.967 3.635 4.275 5.674 11.494 4.6 16.404-2.125 9.715-11.881 13.07-21.209 13.662 3.269.34 7.426.571 11.414-.357.506-.121.965-.246 1.42-.387.105-.031.457-.15.457-.15a18.319 18.319 0 0 0 2.353-.965c.231-.113.399-.197.567-.285.293-.158.582-.33.869-.506l.191-.113c.098-.059.198-.117.295-.182.459-.299.877-.596 1.276-.908l.078-.055c.088-.072.205-.176.324-.277l.365-.309.26-.219c.314-.287.617-.582.904-.884.26-.274.51-.555.748-.844.088-.102.168-.209.25-.317l.223-.287.197-.257c.151-.209.287-.42.426-.629l.176-.266c.152-.242.295-.488.431-.738l.104-.182c.144-.265.277-.535.404-.806l.072-.151c.127-.275.245-.558.356-.842l.057-.142c.109-.287.207-.571.296-.856l.061-.183c.082-.272.16-.547.229-.826l.06-.241c.063-.261.117-.521.168-.785l.057-.318c.041-.24.076-.481.105-.721.02-.141.035-.273.049-.408a20.986 20.986 0 0 0 .084-1.143 16.736 16.736 0 0 0 .014-1.148 13.255 13.255 0 0 0-.018-.559c-.01-.195-.019-.388-.035-.582a16.826 16.826 0 0 0-.051-.551c-.019-.195-.043-.39-.068-.587a22.361 22.361 0 0 0-.305-1.723l-.07-.336-.057-.213a18.703 18.703 0 0 0-.168-.637c-.058-.203-.099-.359-.146-.515a35.299 35.299 0 0 0-.221-.674s-.117-.35-.154-.451c-.096-.262-.2-.522-.305-.783l-.129-.321a23.214 23.214 0 0 0-.449-.996l-.035-.08a24.653 24.653 0 0 0-10.215-10.783 9.876 9.876 0 0 0-.533-.276l-.567-.255c-.129-.055-.263-.106-.396-.159l-.203-.08c-.133-.051-.264-.095-.395-.14l-.248-.086-.666-.205-.687-.188-.206-.049c-.169-.041-.335-.08-.503-.117l.007-.377-.052-.01-.034.371c-1.773-.382-3.632-.57-5.232-.527a9.99 9.99 0 0 0-.564.026 10.573 10.573 0 0 0-1.52.205l-.252.045c-.281.06-.535.085-.812.16l-.073.017c-.295.082-.75.1-1.031.194l-.072.021c-.287.098-1.766.426-2.084.514 0 0-1.34.447-1.539.551 0 0-.934.42-1.194.578l-.156.097c-.34.213-.676.426-1 .641l-.113.08a61.35 61.35 0 0 0-2.789 2.035c.18-.142 2.345-.76 2.787-.885"/>
        <path fill="#65BDCD" d="M65.39 17.252c19.059 23.855 37.02 28.125 41.834 28.861.242-1.332.524-2.488.84-3.451.103-.312.215-.613.332-.906-18.914-.975-33.182-18.361-43.518-28.389-5.439-5.278-11.14-8.396-16.103-10.239 5.945 3.083 11.594 7.839 16.615 14.124"/>
        <path fill="#3C717B" d="M2.244 30.873C2.246 18.654 8.529 8.249 17.978 2.894c-6.9 2.68-13.078 8.11-16.484 18.247-3.371 10.033-.405 18.537 5.099 24.588-2.84-4.114-4.351-9.157-4.349-14.856"/>
        <path fill="#70B666" d="M154.605 34.621c-.127-.244-.531-.432-1.191-.432-.879 0-2.215.334-3.944 1.309-3.023 1.703-7.465 5.008-13.752 6.652-1.033.27-1.98.387-2.843.387-4.391 0-6.631-3.043-7.125-4.562-.59-1.819 6.005-5.657 6.617-7.92.509-1.897-.52-4.004-1.516-4.004a.796.796 0 0 0-.562.252c-1.108 1.076-4.678 4.853-10.332 7.164-5.653 2.31-9.133 4.51-10.795 9.556-.422 1.278-.741 2.805-.983 4.371-2.527-.226-22.447-2.829-43.691-29.421C54.433 5.391 43.013.177 32.792.175 16.593.173 3.402 13.266 3.398 30.875c-.002 9.023 3.859 16.617 11.756 21.086 5.211 2.949 11.172 4.225 17.137 4.225 2.933 0 5.867-.309 8.714-.879 5.979-1.198 11.332-3.829 15.842-7.692-4.695 2.069-11.287 3.758-16.387 4.059a79.867 79.867 0 0 1-4.793.154c-3.218 0-6.355-.242-9.611-.875l-.152-.027c-.428-.084-.86-.178-1.291-.276l-.16-.035-.043-.009a24.43 24.43 0 0 1-1.028-.268c-.119-.033-.236-.074-.355-.109-.244-.075-.486-.149-.733-.231-.103-.035-.203-.074-.304-.111-.262-.094-.524-.188-.783-.291l-.198-.082a21.67 21.67 0 0 1-.861-.371l-.104-.049a20.08 20.08 0 0 1-.894-.444l-.084-.044a19.539 19.539 0 0 1-.842-.477l-.217-.139a13.303 13.303 0 0 1-1.926-1.418c-1.275-1.113-2.603-2.595-3.71-4.185l-.049-.069c-.104-.148-.201-.298-.299-.449l-.125-.185c-.072-.114-.141-.229-.213-.342-.061-.1-.123-.197-.182-.297l-.142-.25c-.072-.129-.147-.258-.217-.387l-.1-.191a13.139 13.139 0 0 1-.226-.442l-.086-.183c-.068-.149-.139-.295-.201-.442l-.104-.259a13.613 13.613 0 0 1-.144-.362 10.806 10.806 0 0 1-.205-.615c-1.543-5.15-1.084-10.426.878-14.99l.038-.086c.15-.344.306-.686.474-1.024.053-.105.112-.21.166-.316.133-.258.268-.516.41-.768.082-.142.17-.285.254-.427.127-.211.254-.422.387-.631.102-.156.207-.311.313-.467.13-.189.261-.381.398-.566l.131-.19c.074-.097.152-.189.226-.287.129-.168.26-.334.393-.498.131-.158.266-.314.4-.471.133-.154.266-.304.403-.455.144-.156.289-.308.435-.461.139-.14.278-.283.42-.42.151-.146.305-.291.459-.431.149-.139.299-.274.453-.406a22.614 22.614 0 0 1 1.399-1.11 18.032 18.032 0 0 1 .972-.666 15.963 15.963 0 0 1 1.004-.607c.26-.149.522-.291.789-.428l.248-.123c.289-.145.582-.281.879-.412l.198-.084c.312-.133.629-.258.949-.377l.17-.061c.328-.117.656-.226.992-.328l.18-.053c.33-.095.66-.185.998-.265l.236-.053c.316-.072.637-.14.961-.197.117-.022.236-.037.355-.057.288-.045.577-.092.868-.125.193-.023.388-.037.584-.056.222-.02.445-.045.671-.057.432-.025.864-.041 1.299-.041.479 0 .965.016 1.453.047.223.013.444.043.664.064.27.026.536.043.807.076l.057.01c.603.078 1.189.18 1.765.299.213.045.42.1.631.15a17.656 17.656 0 0 1 1.795.499 20.048 20.048 0 0 1 1.629.591c.354.145.699.295 1.039.453.162.077.326.149.484.229.477.234.944.48 1.397.74l.045.024c3.775 2.175 6.803 5.199 9.449 8.232l.143.166c.269.311.535.619.797.928 1.31 1.543 2.587 3.133 3.871 4.72 7.445 9.219 16.228 19.198 27.197 24.182 7.412 3.369 15.189 4.891 23.006 4.891 7.25 0 14.535-1.307 21.605-3.658 4.071-1.356 7.795-3.54 12.787-6.428 4.213-2.444 6.397-4.168 9.778-6.434 3.381-2.263 4.035-4.51 3.738-5.08"/>
        <path fill="#70B666" d="M128.576 19.635a26.296 26.296 0 0 1 1.683 5.367c.19-.064.387-.105.592-.105.676 0 1.326.365 1.836 1.029.73.955 1.26 2.693.793 4.428-.293 1.086-1.365 2.211-2.647 3.384-.029.686-.078 1.35-.128 2.008l.078-.062c1.843-1.532 3.22-3.534 4.228-4.994.901-1.305 1.397-2.026 2.065-2.305a1.892 1.892 0 0 1 1.156-.115c-.406-3.59-1.404-7.377-2.602-10.483C131.208 6.32 118.97.706 107.113.706c-2.666 0-5.319.283-7.854.852-9.836 2.196-19.476 10.805-26.295 18.298.375.375.752.751 1.133 1.128l.543-.552c2.112-2.151 4.293-4.375 6.623-6.385 7.235-6.243 15.832-9.682 24.211-9.682 2.701 0 5.369.365 7.928 1.084 4.965 1.395 9.264 4.649 12.775 9.676a21.583 21.583 0 0 1 2.399 4.51"/>
        <path fill="#3C717B" d="M80.253 21.221c5.459-5.092 12.149-9.537 19.694-10.494.867-.112 1.74-.164 2.615-.164 6.225 0 12.432 2.759 16.232 7.787 1.297 1.715 2.401 3.675 3.295 5.629.959 2.091 1.537 4.082 1.828 6.103 2.413-1.564 4.131-3.193 5.059-4.105-.451-3.489-1.523-7.012-3.744-10.192-2.943-4.211-6.873-7.745-12.143-9.226a28.16 28.16 0 0 0-7.615-1.039c-8.101 0-16.431 3.335-23.455 9.398-2.293 1.98-4.459 4.188-6.555 6.322-.181.186-.365.369-.547.555.792.775 1.598 1.555 2.417 2.33a69.507 69.507 0 0 1 2.919-2.904"/>
        <path fill="#595A59" d="M183.974 45.99h-5.779l-8.258-19.168H166.4v-5.633h14.824v5.633h-3.039l3.83 11.127 4.492-11.127h-3.211v-5.633h12.955v5.633h-4.347l-7.93 19.168M208.216 46.193c-3.603 0-6.646-1.14-9.131-3.422-2.482-2.283-3.724-5.408-3.724-9.382 0-3.975 1.242-7.102 3.724-9.383 2.485-2.281 5.528-3.422 9.131-3.422 3.619 0 6.668 1.141 9.143 3.422 2.474 2.281 3.713 5.408 3.713 9.383 0 3.924-1.225 7.037-3.676 9.343-2.449 2.307-5.51 3.461-9.18 3.461m-.025-19.599c-3.217 0-4.824 2.324-4.824 6.97 0 1.905.4 3.473 1.199 4.711.801 1.237 2.008 1.856 3.625 1.856 1.447 0 2.623-.555 3.523-1.666.901-1.111 1.35-2.854 1.35-5.229 0-2.088-.438-3.716-1.313-4.886s-2.062-1.756-3.56-1.756M236.64 45.637h-15.154v-5.631h3.84V16.139h-3.84v-5.631h11.642v29.498h3.512v5.631M247.515 45.99c-2.357 0-4.205-.66-5.543-1.984-1.34-1.324-2.008-3.19-2.008-5.602V26.822h-3.662v-5.633h11.44v15.229c0 1.213.185 2.043.556 2.488.37.446 1.043.67 2.02.67 1.312 0 2.752-.582 4.318-1.744v-11.01h-3.763v-5.633h11.568v18.817h3.939v5.631h-11.744v-2.084c-2.34 1.627-4.715 2.437-7.121 2.437M297.564 45.637h-11.492V30.838c0-1.33-.18-2.24-.543-2.729-.362-.488-.955-.732-1.78-.732-1.449 0-2.929.531-4.445 1.592v11.037h3.764v5.631h-15.305v-5.631h3.736V26.822h-3.736v-5.633h11.541v2.274c2.358-1.768 4.748-2.652 7.172-2.652 4.934 0 7.4 3.148 7.4 9.447v9.748h3.688v5.631M306.165 45.99c-4.277 0-6.414-2.123-6.414-6.373V26.822h-3.107v-5.633h3.107v-3.837l7.803-5.608v9.445h4.496v5.633h-4.496v10.602c0 .963.123 1.607.367 1.935.245.33.803.495 1.68.495.723 0 1.541-.168 2.449-.504v5.404c-2.004.824-3.965 1.236-5.885 1.236M326.562 46.193c-4.311 0-7.674-1.136-10.09-3.41-2.416-2.273-3.623-5.262-3.623-8.965 0-3.771 1.244-6.919 3.736-9.445 2.493-2.527 5.666-3.789 9.522-3.789 2.793 0 5.211.707 7.249 2.121 2.037 1.414 3.451 3.174 4.244 5.279.791 2.104 1.185 4.454 1.185 7.045h-18.209c.117 2.223.82 3.797 2.109 4.723 1.287.926 2.646 1.391 4.078 1.391 1.869 0 3.76-.854 5.079-2.912l6.943-.043c-1.715 5.13-6.818 8.005-12.223 8.005m-.859-20.431c-2.864 0-4.53 1.64-5 4.924h10.229c-.182-1.364-.715-2.526-1.6-3.485-.889-.961-2.098-1.439-3.629-1.439M353.627 46.193c-4.313 0-7.676-1.136-10.09-3.41-2.416-2.273-3.625-5.262-3.625-8.965 0-3.771 1.246-6.919 3.738-9.445 2.492-2.527 5.664-3.789 9.522-3.789 2.793 0 5.211.707 7.248 2.121 2.037 1.414 3.451 3.174 4.242 5.279.791 2.104 1.188 4.454 1.188 7.045h-18.209c.117 2.223.82 3.797 2.109 4.723 1.287.926 2.647 1.391 4.078 1.391 1.869 0 3.799-1.1 5.069-2.872l6.953-.125c-1.784 4.598-6.819 8.047-12.223 8.047m-.859-20.431c-2.864 0-4.53 1.64-5.002 4.924h10.23c-.182-1.364-.715-2.526-1.601-3.485-.887-.961-2.096-1.439-3.627-1.439M384.455 45.637h-16.736v-5.631h4.058V26.822h-4.242v-5.633h11.391v6.213c.437-1.783 1.433-3.33 2.992-4.634 1.557-1.303 3.396-1.957 5.517-1.957.354 0 .774.009 1.264.025v7.375c-1.97 0-3.578.219-4.824.656-1.246.438-2.273 1.399-3.082 2.879-.807 1.483-1.211 3.233-1.211 5.254v3.006h4.873v5.631"/>
        <path fill="#3C717B" d="M177.583 45.379l-8.257-19.168h-3.537V20.58h14.826v5.631h-3.041l3.83 11.127 4.492-11.127h-3.211V20.58h12.957v5.631h-4.348l-7.929 19.168h-5.782M207.58 39.52c1.449 0 2.623-.555 3.523-1.666.9-1.112 1.352-2.854 1.352-5.229 0-2.086-.438-3.715-1.315-4.887-.875-1.17-2.06-1.754-3.56-1.754-3.217 0-4.825 2.323-4.825 6.971 0 1.902.401 3.473 1.202 4.709.798 1.238 2.007 1.856 3.623 1.856zm.025 6.062c-3.604 0-6.647-1.141-9.129-3.422-2.484-2.281-3.725-5.408-3.725-9.383 0-3.972 1.241-7.099 3.725-9.382 2.482-2.282 5.525-3.422 9.129-3.422 3.621 0 6.668 1.14 9.143 3.422 2.474 2.283 3.712 5.41 3.712 9.382 0 3.924-1.224 7.037-3.675 9.344-2.45 2.309-5.51 3.461-9.18 3.461zM220.876 45.025v-5.63h3.838V15.529h-3.838V9.896h11.643v29.499h3.51v5.63h-15.153M265.769 39.395v5.63h-11.744v-2.082c-2.34 1.625-4.713 2.436-7.121 2.436-2.358 0-4.205-.66-5.543-1.985-1.34-1.324-2.008-3.189-2.008-5.601V26.211h-3.662V20.58h11.439v15.229c0 1.211.186 2.041.557 2.486.369.447 1.043.67 2.02.67 1.314 0 2.753-.58 4.318-1.742V26.211h-3.762V20.58h11.567v18.815h3.939M267.152 26.211V20.58h11.541v2.272c2.357-1.768 4.748-2.651 7.174-2.651 4.931 0 7.398 3.149 7.398 9.446v9.748h3.688v5.63h-11.491V30.227c0-1.33-.181-2.239-.545-2.729-.361-.486-.955-.73-1.779-.73-1.449 0-2.93.529-4.445 1.589v11.038h3.764v5.63h-15.305v-5.63h3.738V26.211h-3.738M296.035 26.211V20.58h3.105v-3.84l7.805-5.605v9.445h4.494v5.631h-4.494v10.603c0 .961.121 1.606.365 1.936.244.328.805.492 1.68.492.722 0 1.541-.168 2.449-.504v5.405c-2.004.824-3.965 1.236-5.883 1.236-4.277 0-6.416-2.123-6.416-6.371V26.211h-3.105M330.32 30.074c-.181-1.363-.715-2.525-1.6-3.484-.887-.959-2.095-1.44-3.629-1.44-2.861 0-4.529 1.641-5 4.924h10.229zm.91 7.545l6.944-.041c-1.715 5.129-6.819 8.004-12.223 8.004-4.311 0-7.674-1.137-10.09-3.41-2.416-2.272-3.623-5.262-3.623-8.965 0-3.771 1.246-6.92 3.736-9.445 2.492-2.526 5.666-3.789 9.522-3.789 2.795 0 5.211.707 7.248 2.121 2.037 1.416 3.451 3.174 4.244 5.279.791 2.106 1.186 4.453 1.186 7.047h-18.21c.118 2.221.821 3.797 2.11 4.723 1.289.925 2.648 1.388 4.08 1.388 1.867 0 3.758-.853 5.076-2.912zM357.385 30.074c-.182-1.363-.715-2.525-1.602-3.484-.887-.959-2.095-1.44-3.627-1.44-2.863 0-4.529 1.641-5.002 4.924h10.231zm.9 7.586l6.953-.123c-1.783 4.596-6.818 8.045-12.222 8.045-4.313 0-7.676-1.137-10.09-3.41-2.416-2.272-3.625-5.262-3.625-8.965 0-3.771 1.246-6.92 3.738-9.445 2.492-2.526 5.664-3.789 9.522-3.789 2.793 0 5.21.707 7.248 2.121 2.037 1.416 3.451 3.174 4.242 5.279.791 2.106 1.187 4.453 1.187 7.047h-18.209c.117 2.221.821 3.797 2.11 4.723 1.287.925 2.646 1.388 4.078 1.388 1.869 0 3.799-1.099 5.068-2.871zM383.844 39.395v5.63h-16.737v-5.63h4.059V26.211h-4.242V20.58h11.39v6.211c.438-1.783 1.434-3.328 2.993-4.633 1.556-1.304 3.396-1.957 5.517-1.957.354 0 .774.008 1.264.026V27.6c-1.971 0-3.578.218-4.824.658-1.246.437-2.274 1.396-3.082 2.877-.807 1.482-1.211 3.234-1.211 5.254v3.006h4.873"/>
        <path fill="#595A59" d="M402.07 46.9h-6.783V26h-3.213v-6.178h3.213c.094-2.908.867-5.17 2.32-6.785 1.452-1.615 3.629-2.424 6.534-2.424.523 0 1.082.022 1.677.061.596.041 1.225.101 1.893.181v5.817a85.763 85.763 0 0 1-2.07-.242c-.619-.082-1-.121-1.143-.121-.953 0-1.633.261-2.035.787-.406.525-.633 1.433-.68 2.726h5.998V26h-5.711v20.9M421.496 47.203c-4.189 0-7.391-1.199-9.601-3.603-2.215-2.403-3.321-5.805-3.321-10.209 0-1.977.309-3.817.928-5.512.617-1.696 1.5-3.17 2.641-4.422a12.283 12.283 0 0 1 4.07-2.939c1.572-.705 3.332-1.061 5.283-1.061 1.951 0 3.725.356 5.32 1.061a12.388 12.388 0 0 1 4.106 2.908c1.142 1.232 2.021 2.707 2.641 4.424.619 1.715.927 3.564.927 5.541 0 4.281-1.117 7.654-3.355 10.117-2.239 2.465-5.451 3.695-9.639 3.695m0-21.445c-1.809 0-3.201.707-4.176 2.121-.976 1.414-1.465 3.271-1.465 5.574 0 4.967 1.905 7.451 5.713 7.451 3.76 0 5.641-2.484 5.641-7.451 0-5.129-1.904-7.695-5.713-7.695M444.623 46.9h-7.283V19.822h7.283v1.393c1.143-1.051 2.736-1.574 4.783-1.574 1.238 0 2.475.343 3.713 1.029l-2.426 6.059c-1.287-.606-2.119-.911-2.5-.911-1.285 0-2.203.436-2.748 1.303-.548.869-.822 1.949-.822 3.242V46.9M465.973 47.203c-4.477-.039-7.795-1.221-9.961-3.543-2.168-2.322-3.248-5.683-3.248-10.086 0-4.523 1.177-8.068 3.533-10.633 2.355-2.564 5.629-3.847 9.818-3.847 3.856 0 6.926 1.152 9.209 3.453 2.285 2.303 3.428 5.777 3.428 10.42v1.637c0 .242-.014.595-.035 1.06-.026.465-.037.838-.037 1.119h-18.492c.189 1.295.904 2.303 2.142 3.029 1.236.729 2.522 1.092 3.855 1.092.952 0 1.809-.14 2.571-.424.762-.283 1.474-.789 2.142-1.515l7.854.115c-1.143 4.268-5.797 6.457-7.391 7.125-1.595.666-3.39.998-5.388.998m.07-21.93c-1.57 0-2.881.51-3.928 1.528-1.047 1.019-1.689 2.287-1.927 3.804h11.138c-.238-1.517-.82-2.785-1.75-3.804-.926-1.018-2.105-1.528-3.533-1.528M494.531 46.9h-7.783l-9.139-27.078h7.782l5.285 17.448 5.14-17.448h7.782L494.531 46.9M516.522 47.203c-4.475-.039-7.793-1.221-9.959-3.543-2.168-2.322-3.25-5.683-3.25-10.086 0-4.523 1.179-8.068 3.535-10.633 2.355-2.564 5.629-3.847 9.816-3.847 3.857 0 6.928 1.152 9.211 3.453 2.285 2.303 3.428 5.777 3.428 10.42v1.637c0 .242-.014.595-.037 1.06a22.77 22.77 0 0 0-.036 1.119h-18.492c.19 1.295.905 2.303 2.143 3.029 1.236.729 2.521 1.092 3.855 1.092.951 0 1.809-.14 2.571-.424.761-.283 1.474-.789 2.142-1.515l7.758.103c-.988 5.266-5.701 6.469-7.295 7.137-1.596.666-3.391.998-5.39.998m.072-21.93c-1.571 0-2.881.51-3.928 1.528-1.047 1.019-1.689 2.287-1.928 3.804h11.139c-.24-1.517-.82-2.785-1.75-3.804-.926-1.018-2.106-1.528-3.533-1.528M540.439 46.9h-7.283V19.822h7.283v1.393c1.143-1.051 2.737-1.574 4.786-1.574 1.236 0 2.472.343 3.711 1.029l-2.428 6.059c-1.283-.606-2.117-.911-2.498-.911-1.285 0-2.201.436-2.748 1.303-.549.869-.823 1.949-.823 3.242V46.9"/>
        <path fill="#70B666" d="M401.459 25.391v20.9h-6.783v-20.9h-3.213v-6.18h3.213c.094-2.908.867-5.17 2.32-6.785 1.451-1.615 3.629-2.424 6.533-2.424.524 0 1.082.021 1.678.061.596.041 1.225.101 1.893.181v5.817a80.798 80.798 0 0 1-2.071-.243c-.619-.08-1-.121-1.142-.121-.953 0-1.633.264-2.035.787-.407.526-.633 1.434-.68 2.727h5.998v6.18h-5.711M420.885 25.147c-1.809 0-3.201.707-4.176 2.121-.977 1.414-1.465 3.271-1.465 5.574 0 4.967 1.904 7.451 5.713 7.451 3.76 0 5.641-2.484 5.641-7.451 0-5.129-1.905-7.695-5.713-7.695zm0 21.447c-4.19 0-7.391-1.201-9.602-3.606-2.215-2.402-3.32-5.804-3.32-10.207 0-1.978.308-3.816.928-5.513.617-1.696 1.5-3.17 2.64-4.422a12.284 12.284 0 0 1 4.071-2.938c1.572-.707 3.332-1.06 5.283-1.06 1.951 0 3.724.353 5.32 1.06a12.386 12.386 0 0 1 4.106 2.907c1.142 1.232 2.021 2.707 2.64 4.423.619 1.717.928 3.565.928 5.543 0 4.282-1.117 7.653-3.356 10.117-2.238 2.463-5.451 3.696-9.638 3.696zM450.082 26.117c-1.287-.605-2.119-.91-2.5-.91-1.285 0-2.203.436-2.748 1.303-.549.869-.822 1.949-.822 3.242v16.539h-7.283v-27.08h7.283v1.393c1.142-1.049 2.736-1.575 4.783-1.575 1.238 0 2.475.344 3.713 1.03l-2.426 6.058M465.432 24.662c-1.571 0-2.881.51-3.928 1.529-1.047 1.018-1.69 2.286-1.928 3.803h11.139c-.238-1.517-.82-2.785-1.75-3.803-.926-1.019-2.106-1.529-3.533-1.529zm-5.856 11.512c.19 1.293.904 2.301 2.143 3.029 1.236.727 2.521 1.09 3.855 1.09.951 0 1.809-.141 2.571-.424.761-.283 1.474-.789 2.142-1.515l7.854.115c-1.143 4.267-5.797 6.459-7.391 7.125-1.596.666-3.391 1-5.389 1-4.476-.041-7.795-1.221-9.961-3.545-2.168-2.322-3.248-5.684-3.248-10.086 0-4.523 1.178-8.066 3.534-10.633 2.355-2.564 5.628-3.846 9.818-3.846 3.855 0 6.926 1.151 9.209 3.454 2.285 2.3 3.428 5.775 3.428 10.419v1.635c0 .242-.014.596-.036 1.061-.025.465-.037.838-.037 1.121h-18.492zM486.137 46.291l-9.139-27.08h7.781l5.285 17.447 5.141-17.447h7.781l-9.066 27.08h-7.783M515.982 24.662c-1.57 0-2.88.51-3.927 1.529-1.047 1.018-1.69 2.286-1.928 3.803h11.139c-.241-1.517-.821-2.785-1.75-3.803-.926-1.019-2.106-1.529-3.534-1.529zm-5.855 11.512c.189 1.293.904 2.301 2.143 3.029 1.236.727 2.521 1.09 3.855 1.09.951 0 1.809-.141 2.57-.424.762-.283 1.475-.789 2.143-1.515l7.758.105c-.989 5.264-5.701 6.469-7.295 7.135-1.596.666-3.391 1-5.391 1-4.474-.041-7.793-1.221-9.959-3.545-2.168-2.322-3.25-5.684-3.25-10.086 0-4.523 1.18-8.066 3.535-10.633 2.356-2.564 5.629-3.846 9.817-3.846 3.857 0 6.927 1.151 9.211 3.454 2.285 2.3 3.427 5.775 3.427 10.419v1.635c0 .242-.013.596-.037 1.061-.023.465-.035.838-.035 1.121h-18.492zM545.896 26.117c-1.283-.605-2.117-.91-2.498-.91-1.285 0-2.201.436-2.748 1.303-.548.869-.822 1.949-.822 3.242v16.539h-7.283v-27.08h7.283v1.393c1.143-1.049 2.736-1.575 4.785-1.575 1.237 0 2.473.344 3.711 1.03l-2.428 6.058"/>
    </g>
</svg>
